<svg width="41" height="40" viewBox="0 0 41 40" fill="none" xmlns="http://www.w3.org/2000/svg">
<mask id="mask0_6_283" style="mask-type:alpha" maskUnits="userSpaceOnUse" x="0" y="0" width="41" height="40">
<rect x="0.5" width="40" height="40" fill="#D9D9D9"/>
</mask>
<g mask="url(#mask0_6_283)">
<path d="M4.60254 35.8975L7.13033 27.2073C6.59828 26.067 6.18 24.8998 5.8755 23.7058C5.57103 22.5119 5.41879 21.2901 5.41879 20.0406C5.41879 17.9613 5.81239 16.0092 6.59958 14.1842C7.3868 12.3592 8.46086 10.766 9.82175 9.40458C11.1826 8.0432 12.7752 6.96875 14.5996 6.18125C16.4239 5.39375 18.3753 5 20.4538 5C22.5323 5 24.4846 5.3936 26.3106 6.18079C28.1367 6.96801 29.7307 8.04207 31.0929 9.40296C32.4551 10.7638 33.5301 12.3565 34.3181 14.1808C35.106 16.0051 35.5 17.9565 35.5 20.035C35.5 22.1135 35.1062 24.0658 34.3187 25.8918C33.5312 27.7179 32.4568 29.312 31.0954 30.6741C29.734 32.0363 28.1408 33.1113 26.3158 33.8993C24.4908 34.6872 22.5387 35.0812 20.4594 35.0812C19.2099 35.0812 17.9881 34.929 16.7942 34.6245C15.6002 34.32 14.433 33.9017 13.2927 33.3697L4.60254 35.8975ZM6.73929 33.7607L12.2008 32.1774C12.641 32.062 13.04 32.0121 13.398 32.0278C13.7559 32.0435 14.1482 32.1489 14.5748 32.344C15.495 32.7657 16.4504 33.0923 17.4409 33.3238C18.4314 33.5552 19.436 33.671 20.4548 33.671C24.2471 33.671 27.4676 32.348 30.1165 29.7022C32.7653 27.0563 34.0897 23.8373 34.0897 20.0451C34.0897 16.2529 32.7668 13.0324 30.121 10.3835C27.4751 7.73468 24.2561 6.41025 20.4639 6.41025C16.6717 6.41025 13.4512 7.73132 10.8023 10.3735C8.15347 13.0156 6.82904 16.2401 6.82904 20.047C6.82904 21.0698 6.93125 22.0773 7.13566 23.0695C7.34008 24.0616 7.68018 25.0135 8.15596 25.9252C8.3504 26.285 8.45634 26.6735 8.47379 27.0906C8.49126 27.5078 8.44087 27.9106 8.32262 28.2992L6.73929 33.7607ZM19.7543 25.8803H21.1645V20.7928H26.2799V19.3825H21.1645V14.2885H19.7543V19.3825H14.6602V20.7928H19.7543V25.8803Z" fill="#10B5C9"/>
</g>
</svg>
