<svg width="41" height="40" viewBox="0 0 41 40" fill="none" xmlns="http://www.w3.org/2000/svg">
<mask id="mask0_6_275" style="mask-type:alpha" maskUnits="userSpaceOnUse" x="0" y="0" width="41" height="40">
<rect x="0.5" width="40" height="40" fill="#D9D9D9"/>
</mask>
<g mask="url(#mask0_6_275)">
<path d="M32.0105 33.3337C29.2819 33.3337 26.4489 32.6234 23.5116 31.2028C20.5743 29.7822 17.826 27.787 15.2669 25.2172C12.7078 22.6474 10.718 19.8992 9.29738 16.9725C7.8768 14.0459 7.1665 11.2183 7.1665 8.48962C7.1665 7.96887 7.33703 7.53491 7.67809 7.18774C8.01917 6.84057 8.4455 6.66699 8.95709 6.66699H12.7825C13.2536 6.66699 13.6522 6.81069 13.9785 7.09808C14.3047 7.38546 14.5319 7.76384 14.6601 8.2332L15.5128 12.0224C15.5768 12.4721 15.5575 12.8721 15.455 13.2225C15.3524 13.573 15.1737 13.8614 14.9187 14.0878L11.2274 17.5324C11.9653 18.8322 12.755 20.0329 13.5965 21.1344C14.438 22.2359 15.3321 23.2674 16.2787 24.229C17.3008 25.2696 18.3987 26.2238 19.5725 27.0917C20.7463 27.9595 22.029 28.7745 23.4208 29.5367L27.0127 25.8615C27.2883 25.5602 27.5902 25.3606 27.9183 25.2626C28.2464 25.1647 28.6105 25.1435 29.0105 25.199L32.267 25.9042C32.7385 26.001 33.1174 26.2297 33.4037 26.5902C33.69 26.9507 33.8332 27.3637 33.8332 27.8294V31.5431C33.8332 32.0547 33.6596 32.481 33.3124 32.8221C32.9653 33.1631 32.5313 33.3337 32.0105 33.3337ZM10.5394 16.2525L13.9411 13.1007C14.0337 13.0153 14.096 12.8978 14.128 12.7482C14.1601 12.5986 14.1619 12.4597 14.1334 12.3315L13.3118 8.59008C13.2833 8.41913 13.2121 8.29092 13.0981 8.20545C12.9842 8.11998 12.8417 8.07724 12.6708 8.07724H9.02867C8.90048 8.07724 8.79364 8.11998 8.70817 8.20545C8.6227 8.29092 8.57996 8.39776 8.57996 8.52595C8.58493 9.66912 8.75873 10.8885 9.10134 12.1841C9.44392 13.4797 9.92327 14.8358 10.5394 16.2525ZM24.7787 30.1969C25.9133 30.7774 27.1517 31.209 28.494 31.4918C29.8362 31.7746 30.9963 31.9234 31.9742 31.9384C32.1024 31.9384 32.2092 31.8956 32.2947 31.8102C32.3802 31.7247 32.4229 31.6179 32.4229 31.4897V27.8935C32.4229 27.7225 32.3802 27.5801 32.2947 27.4662C32.2092 27.3522 32.081 27.281 31.9101 27.2525L28.705 26.5869C28.5768 26.5584 28.4646 26.5601 28.3684 26.5922C28.2723 26.6243 28.1708 26.6866 28.064 26.7792L24.7787 30.1969Z" fill="#10B5C9"/>
</g>
</svg>
