<svg width="41" height="40" viewBox="0 0 41 40" fill="none" xmlns="http://www.w3.org/2000/svg">
<mask id="mask0_6_291" style="mask-type:alpha" maskUnits="userSpaceOnUse" x="0" y="0" width="41" height="40">
<rect x="0.5" width="40" height="40" fill="#D9D9D9"/>
</mask>
<g mask="url(#mask0_6_291)">
<path d="M20.5098 19.4231C21.2177 19.4231 21.8203 19.1711 22.3178 18.667C22.8153 18.1629 23.0641 17.557 23.0641 16.8491C23.0641 16.1413 22.8121 15.5386 22.308 15.0411C21.804 14.5436 21.198 14.2949 20.4902 14.2949C19.7823 14.2949 19.1797 14.5469 18.6822 15.051C18.1847 15.555 17.9359 16.161 17.9359 16.8688C17.9359 17.5766 18.188 18.1793 18.692 18.6768C19.1961 19.1743 19.802 19.4231 20.5098 19.4231ZM20.5 33.1389C23.7222 30.3312 26.2639 27.492 28.125 24.6213C29.9861 21.7505 30.9167 19.2635 30.9167 17.1603C30.9167 14.036 29.9298 11.4579 27.9561 9.426C25.9824 7.39414 23.497 6.37821 20.5 6.37821C17.503 6.37821 15.0176 7.39414 13.0439 9.426C11.0702 11.4579 10.0833 14.036 10.0833 17.1603C10.0833 19.2635 11.0207 21.7505 12.8953 24.6213C14.7699 27.492 17.3048 30.3312 20.5 33.1389ZM20.5 35.032C16.5833 31.5684 13.633 28.3381 11.6491 25.3413C9.66508 22.3446 8.6731 19.6175 8.6731 17.1603C8.6731 13.6346 9.82107 10.7265 12.117 8.43587C14.4129 6.14529 17.2073 5 20.5 5C23.7928 5 26.5871 6.14529 28.883 8.43587C31.179 10.7265 32.3269 13.6346 32.3269 17.1603C32.3269 19.6175 31.3349 22.3446 29.351 25.3413C27.367 28.3381 24.4167 31.5684 20.5 35.032Z" fill="#10B5C9"/>
</g>
</svg>
