<svg width="40" height="40" viewBox="0 0 40 40" fill="none" xmlns="http://www.w3.org/2000/svg">
<path d="M19.9997 25.9276C23.2724 25.9276 25.9256 23.2745 25.9256 20.0019C25.9256 16.7292 23.2724 14.0762 19.9997 14.0762C16.7269 14.0762 14.0737 16.7292 14.0737 20.0019C14.0737 23.2745 16.7269 25.9276 19.9997 25.9276Z" stroke="#CCCCCC" stroke-width="2.22219" stroke-linecap="round" stroke-linejoin="round"/>
<path d="M6.6665 25.9266V14.0751C6.6665 9.98427 9.98292 6.66797 14.0739 6.66797H25.9258C30.0167 6.66797 33.3332 9.98427 33.3332 14.0751V25.9266C33.3332 30.0174 30.0167 33.3338 25.9258 33.3338H14.0739C9.98292 33.3338 6.6665 30.0174 6.6665 25.9266Z" stroke="#CCCCCC" stroke-width="2.22219"/>
<path d="M28.1479 11.8656L28.1621 11.8499" stroke="#CCCCCC" stroke-width="2.22219" stroke-linecap="round" stroke-linejoin="round"/>
</svg>
