<svg width="132" height="32" viewBox="0 0 132 32" fill="none" xmlns="http://www.w3.org/2000/svg">
<g style="mix-blend-mode:multiply">
<path fill-rule="evenodd" clip-rule="evenodd" d="M42.7638 30.4912C44.5622 31.4971 46.5892 32 48.8448 32C51.1005 32 53.1275 31.4666 54.9259 30.3997C56.7243 29.3329 58.1416 27.9155 59.178 26.1476C60.2144 24.3797 60.7325 22.4289 60.7325 20.2952C60.7325 18.0091 60.2296 15.9821 59.2237 14.2142C58.2178 12.4463 56.8309 11.0594 55.063 10.0535C53.3256 9.01716 51.3138 8.49897 49.0277 8.49897C47.2293 8.49897 45.5681 8.92571 44.044 9.77919C43.046 10.3291 42.1773 11.0083 41.4379 11.8168V0H36.9114V20.2952C36.9114 22.4899 37.4296 24.4864 38.466 26.2848C39.5328 28.0527 40.9654 29.4548 42.7638 30.4912ZM52.594 26.742C51.4967 27.4126 50.247 27.7479 48.8448 27.7479C47.4427 27.7479 46.1777 27.4126 45.0499 26.742C43.9526 26.0409 43.0686 25.1265 42.3981 23.9987C41.7579 22.8709 41.4379 21.6211 41.4379 20.2495C41.4379 18.9083 41.7579 17.6738 42.3981 16.546C43.0686 15.3877 43.9526 14.4733 45.0499 13.8027C46.1777 13.1321 47.4427 12.7968 48.8448 12.7968C50.247 12.7968 51.4967 13.1321 52.594 13.8027C53.7218 14.4733 54.6058 15.3877 55.2459 16.546C55.886 17.6738 56.2061 18.9083 56.2061 20.2495C56.2061 21.6211 55.886 22.8709 55.2459 23.9987C54.6058 25.1265 53.7218 26.0409 52.594 26.742ZM67.8757 30.3997C69.5827 31.4666 71.5182 32 73.6824 32C75.6332 32 77.3402 31.558 78.8033 30.6741C80.1378 29.857 81.2046 28.7966 82.0038 27.4928V31.4513H86.3017V20.2038C86.3017 17.9786 85.7682 15.9821 84.7014 14.2142C83.665 12.4463 82.2477 11.0594 80.4493 10.0535C78.6509 9.01716 76.6239 8.49897 74.3682 8.49897C72.1126 8.49897 70.0856 9.0324 68.2872 10.0992C66.4888 11.1356 65.0562 12.553 63.9894 14.3514C62.953 16.1193 62.4348 18.0701 62.4348 20.2038C62.4348 22.3679 62.9225 24.3492 63.8979 26.1476C64.8733 27.9155 66.1993 29.3329 67.8757 30.3997ZM78.1632 26.6963C77.0354 27.3668 75.7704 27.7021 74.3682 27.7021C72.9661 27.7021 71.7011 27.3668 70.5733 26.6963C69.476 26.0257 68.592 25.1265 67.9215 23.9987C67.2814 22.8404 66.9613 21.5907 66.9613 20.2495C66.9613 18.8778 67.2814 17.6281 67.9215 16.5003C68.592 15.3725 69.476 14.4733 70.5733 13.8027C71.7011 13.1016 72.9661 12.7511 74.3682 12.7511C75.7704 12.7511 77.0354 13.1016 78.1632 13.8027C79.291 14.4733 80.1749 15.3725 80.815 16.5003C81.4551 17.6281 81.7752 18.8778 81.7752 20.2495C81.7752 21.5907 81.4551 22.8404 80.815 23.9987C80.1749 25.1265 79.291 26.0257 78.1632 26.6963ZM72.0919 5.23965H76.583L79.5771 2.24556H75.086L72.0919 5.23965ZM99.7312 31.9543C97.4756 31.9543 95.4486 31.4513 93.6502 30.4455C91.8518 29.4091 90.4344 28.007 89.398 26.239C88.3617 24.4407 87.8435 22.3984 87.8435 20.1123C87.8435 17.9786 88.3159 16.0278 89.2609 14.2599C90.2058 12.4615 91.5317 11.0442 93.2387 10.0078C94.9456 8.94096 96.9269 8.40753 99.1825 8.40753C101.438 8.40753 103.374 8.91047 104.989 9.91635C106.635 10.8918 107.9 12.2329 108.784 13.9399C109.699 15.6163 110.156 17.4909 110.156 19.5637V21.3925H92.2465C92.3603 22.2603 92.5996 23.0681 92.9643 23.8158C93.574 25.0655 94.4579 26.0714 95.6162 26.8334C96.7745 27.565 98.1309 27.9308 99.6855 27.9308C101.088 27.9308 102.353 27.6259 103.48 27.0163C104.639 26.4067 105.553 25.4923 106.224 24.273L109.699 26.0562C108.723 27.9765 107.367 29.4396 105.629 30.4455C103.892 31.4513 101.926 31.9543 99.7312 31.9543ZM105.629 18.4663C105.568 17.2776 105.248 16.226 104.669 15.3115C104.12 14.3971 103.358 13.696 102.383 13.2083C101.438 12.7206 100.356 12.4768 99.1368 12.4768C97.8871 12.4768 96.7745 12.7359 95.7991 13.254C94.8542 13.7722 94.0921 14.4885 93.513 15.403C92.9643 16.3174 92.5986 17.3385 92.4157 18.4663H105.629ZM113.001 30.2168C113.824 31.0398 115.012 31.4513 116.567 31.4513H130.924V27.565H117.39C117.146 27.565 116.933 27.504 116.75 27.3821C116.567 27.2602 116.475 27.0773 116.475 26.8334C116.475 26.4677 116.658 26.1628 117.024 25.919L128.82 17.2318C129.582 16.6527 130.146 16.0431 130.512 15.403C130.878 14.7629 131.061 13.9856 131.061 13.0712C131.061 12.0348 130.649 11.1051 129.826 10.2821C129.034 9.45913 127.875 9.04764 126.351 9.04764H112.315V12.9797H125.437C125.711 12.9797 125.94 13.0407 126.123 13.1626C126.306 13.254 126.397 13.4369 126.397 13.7113C126.397 14.0466 126.229 14.3514 125.894 14.6257L114.098 23.3128C113.305 23.831 112.726 24.4254 112.361 25.096C111.995 25.7361 111.812 26.5134 111.812 27.4278C111.812 28.4642 112.208 29.3939 113.001 30.2168ZM21.0865 2.90968C21.0142 1.71471 20.9413 0.509674 19.7552 0.509674H15.1617L15.0628 0.512592C13.9715 0.578468 13.9007 1.74883 13.8305 2.90968C13.7872 3.62508 13.7441 4.33686 13.4626 4.78431C13.0608 5.42279 12.3546 5.89131 11.6675 6.34722C11.0686 6.74451 10.4842 7.13223 10.1282 7.61453C9.61856 8.30504 9.56135 9.46853 9.96014 11.1202C10.0428 11.4624 10.4169 11.6474 10.94 11.1202C12.8772 9.39471 14.8769 8.14892 16.7028 7.86326C19.0112 7.79505 21.3299 8.70199 23.8524 11.1202C24.3756 11.6474 24.7508 11.4627 24.8323 11.1202C25.2247 9.47146 25.1739 8.30504 24.6642 7.61453C24.3095 7.13389 23.7546 6.74717 23.1867 6.35131C22.5308 5.8941 21.8573 5.4247 21.4544 4.78431C21.1728 4.33686 21.1297 3.62508 21.0865 2.90968ZM17.975 9.86161C22.717 11.2022 26.7434 17.263 26.7434 20.4555C26.7434 23.6471 3.15505 27.5844 4.18928 23.5442C5.22166 19.504 13.024 8.46825 17.975 9.86161ZM27.9057 30.9283C31.8764 30.9283 32.4211 29.1505 32.4211 26.9706C32.4211 24.7925 30.3922 23.3251 27.9057 23.3251C25.4183 23.3251 23.3931 24.7925 23.3931 26.9706C23.3931 29.1505 23.9351 30.9283 27.9057 30.9283ZM22.4348 28.3109C22.4348 29.7311 22.1169 30.8919 19.4897 30.8919C16.8625 30.8919 16.5454 29.7311 16.5454 28.3109C16.5454 26.8897 17.8707 25.7307 19.4897 25.7307C21.1133 25.7307 22.4348 26.8897 22.4348 28.3109ZM13.1827 30.846C15.3404 30.846 15.6057 29.8927 15.6057 28.7254C15.6057 27.5581 14.519 26.6039 13.1827 26.6039C11.8519 26.6039 10.7634 27.5581 10.7634 28.7254C10.7634 29.8927 11.0249 30.846 13.1827 30.846ZM9.91183 29.0354C9.91183 30.0165 9.58133 30.8141 7.88577 30.8141C6.19021 30.8141 5.85603 30.0165 5.85603 29.0354C5.85603 28.057 6.7696 27.2603 7.88577 27.2603C9.00194 27.2603 9.91183 28.057 9.91183 29.0354ZM2.91178 30.7821C4.84482 30.7821 4.84482 30.0224 4.84482 29.0876C4.84482 28.1602 3.97546 27.3978 2.91178 27.3978C1.85086 27.3978 0.982422 28.1602 0.982422 29.0876L0.982422 29.0929C0.982415 30.0253 0.982409 30.7821 2.91178 30.7821Z" fill="#CCCCCC"/>
</g>
</svg>
