<svg width="34" height="32" xmlns="http://www.w3.org/2000/svg" fill="none">

 <g>
  <title>Layer 1</title>
  <g id="svg_1">
   <path id="svg_2" fill="#CCCCCC" d="m42.7638,30.4912c1.7984,1.0059 3.8254,1.5088 6.081,1.5088c2.2557,0 4.2827,-0.5334 6.0811,-1.6003c1.7984,-1.0668 3.2157,-2.4842 4.2521,-4.2521c1.0364,-1.7679 1.5545,-3.7187 1.5545,-5.8524c0,-2.2861 -0.5029,-4.3131 -1.5088,-6.081c-1.0059,-1.7679 -2.3928,-3.1548 -4.1607,-4.1607c-1.7374,-1.03634 -3.7492,-1.55453 -6.0353,-1.55453c-1.7984,0 -3.4596,0.42674 -4.9837,1.28022c-0.998,0.54991 -1.8667,1.22911 -2.6061,2.03761l0,-11.8168l-4.5265,0l0,20.2952c0,2.1947 0.5182,4.1912 1.5546,5.9896c1.0668,1.7679 2.4994,3.17 4.2978,4.2064zm9.8302,-3.7492c-1.0973,0.6706 -2.347,1.0059 -3.7492,1.0059c-1.4021,0 -2.6671,-0.3353 -3.7949,-1.0059c-1.0973,-0.7011 -1.9813,-1.6155 -2.6518,-2.7433c-0.6402,-1.1278 -0.9602,-2.3776 -0.9602,-3.7492c0,-1.3412 0.32,-2.5757 0.9602,-3.7035c0.6705,-1.1583 1.5545,-2.0727 2.6518,-2.7433c1.1278,-0.6706 2.3928,-1.0059 3.7949,-1.0059c1.4022,0 2.6519,0.3353 3.7492,1.0059c1.1278,0.6706 2.0118,1.585 2.6519,2.7433c0.6401,1.1278 0.9602,2.3623 0.9602,3.7035c0,1.3716 -0.3201,2.6214 -0.9602,3.7492c-0.6401,1.1278 -1.5241,2.0422 -2.6519,2.7433zm15.2817,3.6577c1.707,1.0669 3.6425,1.6003 5.8067,1.6003c1.9508,0 3.6578,-0.442 5.1209,-1.3259c1.3345,-0.8171 2.4013,-1.8775 3.2005,-3.1813l0,3.9585l4.2979,0l0,-11.2475c0,-2.2252 -0.5335,-4.2217 -1.6003,-5.9896c-1.0364,-1.7679 -2.4537,-3.1548 -4.2521,-4.1607c-1.7984,-1.03634 -3.8254,-1.55453 -6.0811,-1.55453c-2.2556,0 -4.2826,0.53343 -6.081,1.60023c-1.7984,1.0364 -3.231,2.4538 -4.2978,4.2522c-1.0364,1.7679 -1.5546,3.7187 -1.5546,5.8524c0,2.1641 0.4877,4.1454 1.4631,5.9438c0.9754,1.7679 2.3014,3.1853 3.9778,4.2521zm10.2875,-3.7034c-1.1278,0.6705 -2.3928,1.0058 -3.795,1.0058c-1.4021,0 -2.6671,-0.3353 -3.7949,-1.0058c-1.0973,-0.6706 -1.9813,-1.5698 -2.6518,-2.6976c-0.6401,-1.1583 -0.9602,-2.408 -0.9602,-3.7492c0,-1.3717 0.3201,-2.6214 0.9602,-3.7492c0.6705,-1.1278 1.5545,-2.027 2.6518,-2.6976c1.1278,-0.7011 2.3928,-1.0516 3.7949,-1.0516c1.4022,0 2.6672,0.3505 3.795,1.0516c1.1278,0.6706 2.0117,1.5698 2.6518,2.6976c0.6401,1.1278 0.9602,2.3775 0.9602,3.7492c0,1.3412 -0.3201,2.5909 -0.9602,3.7492c-0.6401,1.1278 -1.524,2.027 -2.6518,2.6976zm-6.0713,-21.45665l4.4911,0l2.9941,-2.99409l-4.4911,0l-2.9941,2.99409zm27.6393,26.71465c-2.2556,0 -4.2826,-0.503 -6.081,-1.5088c-1.7984,-1.0364 -3.2158,-2.4385 -4.2522,-4.2065c-1.0363,-1.7983 -1.5545,-3.8406 -1.5545,-6.1267c0,-2.1337 0.4724,-4.0845 1.4174,-5.8524c0.9449,-1.7984 2.2708,-3.2157 3.9778,-4.2521c1.7069,-1.06684 3.6882,-1.60027 5.9438,-1.60027c2.2555,0 4.1915,0.50294 5.8065,1.50882c1.646,0.97545 2.911,2.31655 3.795,4.02355c0.915,1.6764 1.372,3.551 1.372,5.6238l0,1.8288l-17.9095,0c0.1138,0.8678 0.3531,1.6756 0.7178,2.4233c0.6097,1.2497 1.4936,2.2556 2.6519,3.0176c1.1583,0.7316 2.5147,1.0974 4.0693,1.0974c1.4025,0 2.6675,-0.3049 3.7945,-0.9145c1.159,-0.6096 2.073,-1.524 2.744,-2.7433l3.475,1.7832c-0.976,1.9203 -2.332,3.3834 -4.07,4.3893c-1.737,1.0058 -3.703,1.5088 -5.8978,1.5088zm5.8978,-13.488c-0.061,-1.1887 -0.381,-2.2403 -0.96,-3.1548c-0.549,-0.9144 -1.311,-1.6155 -2.286,-2.1032c-0.945,-0.4877 -2.027,-0.7315 -3.2462,-0.7315c-1.2497,0 -2.3623,0.2591 -3.3377,0.7772c-0.9449,0.5182 -1.707,1.2345 -2.2861,2.149c-0.5487,0.9144 -0.9144,1.9355 -1.0973,3.0633l13.2133,0zm7.372,11.7505c0.823,0.823 2.011,1.2345 3.566,1.2345l14.357,0l0,-3.8863l-13.534,0c-0.244,0 -0.457,-0.061 -0.64,-0.1829c-0.183,-0.1219 -0.275,-0.3048 -0.275,-0.5487c0,-0.3657 0.183,-0.6706 0.549,-0.9144l11.796,-8.6872c0.762,-0.5791 1.326,-1.1887 1.692,-1.8288c0.366,-0.6401 0.549,-1.4174 0.549,-2.3318c0,-1.0364 -0.412,-1.9661 -1.235,-2.7891c-0.792,-0.82297 -1.951,-1.23446 -3.475,-1.23446l-14.036,0l0,3.93206l13.122,0c0.274,0 0.503,0.061 0.686,0.1829c0.183,0.0914 0.274,0.2743 0.274,0.5487c0,0.3353 -0.168,0.6401 -0.503,0.9144l-11.796,8.6871c-0.793,0.5182 -1.372,1.1126 -1.737,1.7832c-0.366,0.6401 -0.549,1.4174 -0.549,2.3318c0,1.0364 0.396,1.9661 1.189,2.789zm-91.9145,-27.30712c-0.0723,-1.19497 -0.1452,-2.40001 -1.3313,-2.40001l-4.5935,0l-0.0989,0.00292c-1.0913,0.06588 -1.1621,1.23624 -1.2323,2.39709c-0.0433,0.7154 -0.0864,1.42718 -0.3679,1.87463c-0.4018,0.63848 -1.108,1.107 -1.7951,1.56291c-0.5989,0.39729 -1.1833,0.78501 -1.5393,1.26731c-0.50964,0.69051 -0.56685,1.854 -0.16806,3.50567c0.08266,0.3422 0.45676,0.5272 0.97986,0c1.9372,-1.72549 3.9369,-2.97128 5.7628,-3.25694c2.3084,-0.06821 4.6271,0.83873 7.1496,3.25694c0.5232,0.5272 0.8984,0.3425 0.9799,0c0.3924,-1.64874 0.3416,-2.81516 -0.1681,-3.50567c-0.3547,-0.48064 -0.9096,-0.86736 -1.4775,-1.26322c-0.6559,-0.45721 -1.3294,-0.92661 -1.7323,-1.567c-0.2816,-0.44745 -0.3247,-1.15923 -0.3679,-1.87463zm-3.1115,6.95193c4.742,1.34059 8.7684,7.40139 8.7684,10.59389c0,3.1916 -23.58835,7.1289 -22.55412,3.0887c1.03238,-4.0402 8.83472,-15.07595 13.78572,-13.68259zm9.9307,21.06669c3.9707,0 4.5154,-1.7778 4.5154,-3.9577c0,-2.1781 -2.0289,-3.6455 -4.5154,-3.6455c-2.4874,0 -4.5126,1.4674 -4.5126,3.6455c0,2.1799 0.542,3.9577 4.5126,3.9577zm-5.4709,-2.6174c0,1.4202 -0.3179,2.581 -2.9451,2.581c-2.6272,0 -2.9443,-1.1608 -2.9443,-2.581c0,-1.4212 1.3253,-2.5802 2.9443,-2.5802c1.6236,0 2.9451,1.159 2.9451,2.5802zm-9.2521,2.5351c2.1577,0 2.423,-0.9533 2.423,-2.1206c0,-1.1673 -1.0867,-2.1215 -2.423,-2.1215c-1.3308,0 -2.4193,0.9542 -2.4193,2.1215c0,1.1673 0.2615,2.1206 2.4193,2.1206zm-3.27087,-1.8106c0,0.9811 -0.3305,1.7787 -2.02606,1.7787c-1.69556,0 -2.02974,-0.7976 -2.02974,-1.7787c0,-0.9784 0.91357,-1.7751 2.02974,-1.7751c1.11617,0 2.02606,0.7967 2.02606,1.7751zm-7.00005,1.7467c1.93304,0 1.93304,-0.7597 1.93304,-1.6945c0,-0.9274 -0.86936,-1.6898 -1.93304,-1.6898c-1.06092,0 -1.92936,0.7624 -1.92936,1.6898l0,0.0053c-0.00001,0.9324 -0.00001,1.6892 1.92936,1.6892z" clip-rule="evenodd" fill-rule="evenodd"/>
  </g>
 </g>
</svg>